# xmcd
#
# Track frame offsets: 
#        150
#        6593
#        25495
#        41217
#        59690
#        72827
#        88195
#        106100
#        117914
#        132112
#        148109
#        165322
#        183022
#        192150
#
# Disc length: 2789 seconds
#
# Revision: 0
# Processed by: cddbd v1.5.2PL0 Copyright (c) Steve Scherf et al.
# Submitted via: ExactAudioCopy v0.95b4
#
DISCID=c40ae30e
DTITLE=Mark Ronson - Here Comes The Fuzz
DYEAR=2003
DGENRE=Hip-Hop
TTITLE0=Intro
TTITLE1=Bluegrass Stain'd Featuring Nappy Roots and Anthony Hamilton
TTITLE2=Ooh Wee Featuring Ghostface Killah, Nate Dogg and Trife
TTITLE3=High Featuring Aya
TTITLE4=I Suck Featuring Rivers Cuomo
TTITLE5=International Affair Featuring Sean Paul and Tweet
TTITLE6=Diduntdidunt Featuring Saigon
TTITLE7=On The Run Featuring Mos Def and M.O.P
TTITLE8=Here Comes The Fuzz Featuring Freeway and Nikka Costa
TTITLE9=Bout To Get Ugly Featuring Rhymefest and Anthony Hamilton
TTITLE10=She's Got Me Featuring Daniel Merriweather
TTITLE11=Tomorrow Featuring Q-Tip and Debi Nova
TTITLE12=Rashi (Outro)
TTITLE13=NYC Rules - Bonus Track
EXTD=
EXTT0=
EXTT1=
EXTT2=
EXTT3=
EXTT4=
EXTT5=
EXTT6=
EXTT7=
EXTT8=
EXTT9=
EXTT10=
EXTT11=
EXTT12=
EXTT13=
PLAYORDER=
